<svg xmlns="http://www.w3.org/2000/svg" version="1.1" xmlns:xlink="http://www.w3.org/1999/xlink" width="512" height="512" x="0" y="0" viewBox="0 0 51 56" style="enable-background:new 0 0 512 512" xml:space="preserve" class=""><g><g fill="#000" fill-rule="nonzero"><path d="M33.629 28.23a9.49 9.49 0 0 1-1.533.321c.354.7 1.188 1.351 3.349 2.074a6.4 6.4 0 0 1 2.928 1.945c.308.386.83.527 1.291.348.397-.17.655-.56.655-.992a1 1 0 0 0-.052-.322 8.933 8.933 0 0 0-.745-1.718 8.226 8.226 0 0 1-1.773.518 1 1 0 1 1-.317-1.975A6.375 6.375 0 0 0 41.55 25.9a6.168 6.168 0 0 1-4.62-.426 6 6 0 0 1-1.172-.8A3.443 3.443 0 0 1 31.388 23a1 1 0 1 1 1.789-.894 1.507 1.507 0 0 0 2.171.553 1.486 1.486 0 0 0 .482-1.886 1 1 0 1 1 1.79-.893 3.407 3.407 0 0 1-.267 3.518c.154.111.316.212.485.3a4.322 4.322 0 0 0 5.106-.936l.018-.019a4.27 4.27 0 0 0 .852-4.271 4.115 4.115 0 0 1-.748.467 1 1 0 0 1-.85-1.811c.399-.187.73-.493.949-.875a2.106 2.106 0 0 0-3.094-2.727 1 1 0 0 1-1.2-1.6c.39-.29.828-.509 1.294-.645a6.492 6.492 0 0 0-5.925-5.007c0 .077.023.149.023.227a1 1 0 0 1-2 0 2.104 2.104 0 1 0-4.207 0 1 1 0 0 1-2 0c.005-.448.084-.892.234-1.314a4.854 4.854 0 0 0-2.648-.8A4.938 4.938 0 0 0 19.423 6.8c-.23.391-.405.813-.519 1.252a1 1 0 0 1-1.935-.5c.055-.213.134-.418.209-.624a2.959 2.959 0 0 0-.364-.041 3.04 3.04 0 0 0-2.965 2.407 4.039 4.039 0 0 1 2.837 1.6 1 1 0 0 1-1.605 1.194 2.079 2.079 0 0 0-1.681-.848 2.111 2.111 0 0 0-1.077 3.921 1 1 0 0 1-1.031 1.714 4.071 4.071 0 0 1-.745-.593 6.089 6.089 0 0 0-.488 2.358 6.081 6.081 0 0 0 7.4 6.011 6.28 6.28 0 0 1-.091-1 3.477 3.477 0 0 1-3.1-3.45 1.01 1.01 0 0 1 1-1.012.989.989 0 0 1 1 .987v.025a1.508 1.508 0 0 0 1.425 1.472c.141-.449.333-.88.572-1.286a1 1 0 1 1 1.715 1.029 4.28 4.28 0 0 0 6.9 5.008c.285-.307.722-.42 1.12-.29a7.369 7.369 0 0 0 3.314.5 7.643 7.643 0 0 0 1.726-.318 1 1 0 1 1 .587 1.912zM21.255 14.99a1 1 0 0 1-2 0 4.606 4.606 0 0 1 4.6-4.6 1 1 0 0 1 0 2 2.6 2.6 0 0 0-2.6 2.6zm7.845 5.393a4.96 4.96 0 0 1-4.659 3.207 1 1 0 0 1 0-2 2.974 2.974 0 0 0 2.434-1.256 6.022 6.022 0 0 1-3.2-1.847 1 1 0 0 1 1.484-1.341 4.084 4.084 0 0 0 5.264.595 3.99 3.99 0 0 0 1.651-2.541 1 1 0 1 1 1.964.376 6.034 6.034 0 0 1-4.938 4.807z" fill="#685dc5" opacity="1" data-original="#000000" class=""></path><path d="M46.151 30.723c1.974-2.667 3.838-5.186 3.9-9.695a28 28 0 0 0-.968-7.92 14.426 14.426 0 0 0-5.273-7.572C37.319.43 31.638-1.613 18.592 1.4c-3.181.734-6.447 1.753-8.783 4.227a17.022 17.022 0 0 0-3.58 5.858c-.34.992-.619 2.004-.833 3.03l-.08.349c-.248.932-.585 1.84-1.005 2.708a6.472 6.472 0 0 0-.668 1.907c.043.308.423.658.827 1.028a3.494 3.494 0 0 1 1.461 2.5c-.018.49-.159.97-.409 1.392-.059.108-.11.22-.152.335a8 8 0 0 1-1.914 4.281C2.273 30.29.073 32.663.056 33.241c.206.197.427.379.661.542.24.16.493.303.755.426.854.437 2.024 1.035 2.256 2.262a3.7 3.7 0 0 1-.269 2.235c-.169.358-.345.671-.5.942l-.161.291c.41.328.98.757 1.22.935a1 1 0 0 1 .192 1.419 3.663 3.663 0 0 0-.383.621l.213.123a3.3 3.3 0 0 1 1.84 2.047c.157.686.13 1.401-.076 2.074a3.677 3.677 0 0 0 .1 2.45 1.772 1.772 0 0 0 2.054 1.342c2.9-.71 5.76-1.576 8.568-2.595h.006c.971-.332 1.858-.644 2.575-.9.766-.269 1.344-.472 1.637-.564 4.144-1.3 4.985-2.807 4.961-3.838a1 1 0 0 1 .976-1.023.974.974 0 0 1 1.023.976c.059 2.5-2.081 4.446-6.358 5.792-.28.088-.837.284-1.576.544l-.747.262a14.739 14.739 0 0 1 3.283 5.7c.137.41.52.688.952.692h12.571C33.974 50.8 32.31 44.865 33.4 38.735c.078-.443.172-.892.267-1.346.522-1.696.581-3.5.171-5.226-2.256-.895-3.4-1.941-3.832-3.542a9.607 9.607 0 0 1-2.088-.407 6.265 6.265 0 0 1-9.818-1.657A8.119 8.119 0 0 1 9.4 14.2a4.042 4.042 0 0 1 2.419-4.644 4.982 4.982 0 0 1 6.367-4.476 6.94 6.94 0 0 1 5.456-2.69 6.869 6.869 0 0 1 3.733 1.11 4.068 4.068 0 0 1 6.223.774c.1 0 .188-.016.285-.016A8.508 8.508 0 0 1 42.2 11.2a4.089 4.089 0 0 1 2.965 5.474 6.187 6.187 0 0 1-.554 7.187 8.433 8.433 0 0 1-3.322 5.081c.363.646.66 1.328.883 2.035.101.305.153.625.152.946a3.071 3.071 0 0 1-1.669 2.727 21.109 21.109 0 0 1-.483 3.14c-.091.435-.182.865-.256 1.29-1.055 5.923.723 11.8 2.584 16.917h.935a1 1 0 0 0 .9-1.434 29.265 29.265 0 0 1-2.5-9.44 18.938 18.938 0 0 1 1.455-9.82 23.676 23.676 0 0 1 2.861-4.58z" fill="#685dc5" opacity="1" data-original="#000000" class=""></path><path d="M37.941 38.735c.079-.444.173-.9.268-1.352.185-.81.325-1.629.419-2.454a3.206 3.206 0 0 1-1.781-1.066 4.166 4.166 0 0 0-.767-.7 15.09 15.09 0 0 1-.454 4.633c-.091.432-.181.861-.255 1.284-1.055 5.921.723 11.8 2.584 16.916h2.414c-1.856-5.196-3.52-11.13-2.428-17.261z" fill="#685dc5" opacity="1" data-original="#000000" class=""></path></g></g></svg>