<svg xmlns="http://www.w3.org/2000/svg" version="1.1" xmlns:xlink="http://www.w3.org/1999/xlink" width="512" height="512" x="0" y="0" viewBox="0 0 512.061 512.061" style="enable-background:new 0 0 512 512" xml:space="preserve" class=""><g><path d="M445.571 234.441c-6.25 19.24-16.87 34.56-26.7 48.74-14.57 21.04-28.81 40.9-28.81 72.33v50.87c0 51.02-41.72 105.65-104.53 105.65h-12.29l-26.53-132.64c-2.01-10.06-10.92-17.36-21.18-17.36-10.25 0-19.16 7.3-21.17 17.36l-26.53 132.64h-12.3c-62.8 0-104.47-54.63-104.47-105.65v-50.87c0-31.56-14.31-51.39-28.9-72.38-17.02-24.5-36.33-52.27-31.37-98.12 5.54-51.27 50.38-106.08 100.38-118.65 45.39-11.42 90.8.02 124.38 30.66 15.07-13.67 32.74-23.64 51.77-29.35-3.43 11.87-5.26 24.4-5.26 37.36 0 74.44 60.56 135 135 135 13.38 0 26.3-1.96 38.51-5.59z" fill="#685dc5" opacity="1" data-original="#000000"></path><path d="M407.061.031c-57.9 0-105 47.1-105 105s47.1 105 105 105 105-47.1 105-105-47.1-105-105-105zm45 120h-30v30h-30v-30h-30v-30h30v-30h30v30h30z" fill="#685dc5" opacity="1" data-original="#000000"></path></g></svg>