<?xml version="1.0" encoding="UTF-8" standalone="no"?>
<!-- Created with Inkscape (http://www.inkscape.org/) -->

<svg
   version="1.1"
   id="svg2916"
   xml:space="preserve"
   width="682.66669"
   height="682.66669"
   viewBox="0 0 682.66669 682.66669"
   xmlns="http://www.w3.org/2000/svg"
   xmlns:svg="http://www.w3.org/2000/svg"><defs
     id="defs2920"><clipPath
       clipPathUnits="userSpaceOnUse"
       id="clipPath2930"><path
         d="M 0,512 H 512 V 0 H 0 Z"
         id="path2928" /></clipPath></defs><g
     id="g2922"
     transform="matrix(1.3333333,0,0,-1.3333333,0,682.66667)"><g
       id="g2924"><g
         id="g2926"
         clip-path="url(#clipPath2930)"><g
           id="g2932"
           transform="translate(357.4771,447.3857)"><path
             d="m 0,0 c -23.424,31.233 -60.187,49.614 -99.228,49.614 h -4.499 c -39.041,0 -75.803,-18.381 -99.227,-49.614 -0.001,-0.001 -0.003,-0.003 -0.004,-0.004 -7.13,-9.509 -10.986,-21.073 -10.986,-32.959 v -62.022 c 0,-62.115 50.353,-112.467 112.467,-112.467 62.114,0 112.467,50.352 112.467,112.467 v 62.022 c 0,11.886 -3.856,23.45 -10.987,32.959 C 0.002,-0.003 0.001,-0.001 0,0 Z"
             style="fill:none;stroke:#000000;stroke-width:30;stroke-linecap:round;stroke-linejoin:round;stroke-miterlimit:10;stroke-dasharray:none;stroke-opacity:1"
             id="path2934" /></g><g
           id="g2936"
           transform="translate(143.5332,368.4668)"><path
             d="M 0,0 H 0.002 C 10.288,0 20.153,4.087 27.427,11.359 36.673,20.606 48.2,32.133 48.2,32.133 h 0.002 c 40.456,-20.229 88.074,-20.229 128.53,0 h 0.001 c 0,0 11.527,-11.527 20.774,-20.774 C 204.78,4.087 214.646,0 224.932,0 h 0.002"
             style="fill:none;stroke:#000000;stroke-width:30;stroke-linecap:round;stroke-linejoin:round;stroke-miterlimit:10;stroke-dasharray:none;stroke-opacity:1"
             id="path2938" /></g><g
           id="g2940"
           transform="translate(497,15)"><path
             d="m 0,0 c 0,0 -19.613,58.839 -33.816,101.45 -8.924,26.77 -31.239,46.895 -58.785,53.017 -42.503,9.445 -100.199,22.266 -100.199,22.266 L -241,96.4 l -48.2,80.333 c 0,0 -57.696,-12.821 -100.199,-22.266 -27.546,-6.122 -49.861,-26.247 -58.785,-53.017 C -462.387,58.839 -482,0 -482,0"
             style="fill:none;stroke:#000000;stroke-width:30;stroke-linecap:round;stroke-linejoin:round;stroke-miterlimit:10;stroke-dasharray:none;stroke-opacity:1"
             id="path2942" /></g><g
           id="g2944"
           transform="translate(207.7998,191.7334)"><path
             d="M 0,0 V 56.545"
             style="fill:none;stroke:#000000;stroke-width:30;stroke-linecap:round;stroke-linejoin:round;stroke-miterlimit:10;stroke-dasharray:none;stroke-opacity:1"
             id="path2946" /></g><g
           id="g2948"
           transform="translate(304.2002,191.7334)"><path
             d="M 0,0 V 56.545"
             style="fill:none;stroke:#000000;stroke-width:30;stroke-linecap:round;stroke-linejoin:round;stroke-miterlimit:10;stroke-dasharray:none;stroke-opacity:1"
             id="path2950" /></g><g
           id="g2952"
           transform="translate(336.3335,15)"><path
             d="m 0,0 h -16.067 v 48.2 c 0,12.783 5.078,25.043 14.118,34.082 9.039,9.04 21.299,14.118 34.082,14.118 26.62,0 48.2,-21.58 48.2,-48.2 V 0 H 64.267"
             style="fill:none;stroke:#000000;stroke-width:30;stroke-linecap:round;stroke-linejoin:round;stroke-miterlimit:10;stroke-dasharray:none;stroke-opacity:1"
             id="path2954" /></g><g
           id="g2956"
           transform="translate(368.4668,127.4668)"><path
             d="M 0,0 V 49.985"
             style="fill:none;stroke:#000000;stroke-width:30;stroke-linecap:round;stroke-linejoin:round;stroke-miterlimit:10;stroke-dasharray:none;stroke-opacity:1"
             id="path2958" /></g><g
           id="g2960"
           transform="translate(143.5332,79.2666)"><path
             d="m 0,0 c -17.735,0 -32.133,-14.398 -32.133,-32.133 0,-17.735 14.398,-32.134 32.133,-32.134 17.735,0 32.133,14.399 32.133,32.134 C 32.133,-14.398 17.735,0 0,0 Z"
             style="fill:none;stroke:#000000;stroke-width:30;stroke-linecap:round;stroke-linejoin:round;stroke-miterlimit:10;stroke-dasharray:none;stroke-opacity:1"
             id="path2962" /></g><g
           id="g2964"
           transform="translate(143.5332,79.2666)"><path
             d="M 0,0 V 98.186"
             style="fill:none;stroke:#000000;stroke-width:30;stroke-linecap:round;stroke-linejoin:round;stroke-miterlimit:10;stroke-dasharray:none;stroke-opacity:1"
             id="path2966" /></g></g></g></g></svg>
