<svg xmlns="http://www.w3.org/2000/svg" version="1.1" xmlns:xlink="http://www.w3.org/1999/xlink" width="512" height="512" x="0" y="0" viewBox="0 0 511.657 511.657" style="enable-background:new 0 0 512 512" xml:space="preserve" class=""><g><path d="M387.044 390.636c-27.829-64.723-129.956-71.031-147.167-4.381a16.08 16.08 0 0 0-.241 1.087c-5.036 27.197-1.047 43.689 2.157 56.941 3.4 14.059 5.646 23.346-3.489 45.205-4.395 10.515 3.332 22.169 14.763 22.169h96.107c8.836 0 16-7.163 16-16v-23.92c0-13.542 30.877-42.8 22.77-78.34a15.878 15.878 0 0 0-.9-2.761zM436.113 273.185c-12.15-18.103-39.066-18.149-51.247 0-19.311 28.776-19.312 66.326 0 95.104 12.149 18.102 39.065 18.151 51.247 0 19.311-28.775 19.311-66.329 0-95.104z" fill="#685dc5" opacity="1" data-original="#000000" class=""></path><path d="M331.126 314.668c26.614-17.127 49.634-48.66 55.981-76.682 5.937-26.209-9.98-52.616-36.237-60.119-95.891-27.394-177.676-76.278-232.71-158.959-5.627-8.453-17.563-9.556-24.663-2.418L9.946 100.48c-7.982 8.024-5.323 21.609 5.112 26.021 97.951 41.415 173.108 97.941 229.765 172.808 20.259 26.769 58.174 33.46 86.303 15.359z" fill="#685dc5" opacity="1" data-original="#000000" class=""></path><path d="M453.614 510.607c-10.204 0-17.801-9.409-15.657-19.369l33.135-153.961c11.739-53.484-8.703-108.351-51.838-141.714l-215.8-166.906c-6.99-5.406-8.274-15.455-2.868-22.445 5.407-6.99 15.456-8.273 22.445-2.867L438.83 170.251c53.139 41.099 77.846 108.606 63.531 173.823L469.24 497.97c-1.615 7.505-8.249 12.637-15.626 12.637zM198.582 511.657c-9.047 0-16.301-7.48-16.001-16.529l4.363-131.798c.521-15.742-6.587-31.081-19.016-41.03L11.291 196.912c-6.898-5.522-8.014-15.592-2.492-22.49s15.591-8.015 22.49-2.492l156.638 125.389c20.265 16.223 31.854 41.296 31 67.07l-4.363 131.798c-.287 8.651-7.391 15.47-15.982 15.47z" fill="#685dc5" opacity="1" data-original="#000000" class=""></path></g></svg>