<svg xmlns="http://www.w3.org/2000/svg" version="1.1" xmlns:xlink="http://www.w3.org/1999/xlink" width="512" height="512" x="0" y="0" viewBox="0 0 32 32" style="enable-background:new 0 0 512 512" xml:space="preserve"><g transform="matrix(-1,-1.2246467991473532e-16,1.2246467991473532e-16,-1,31.999999999999996,31.987915992736824)"><g fill="#000" fill-rule="evenodd" clip-rule="evenodd"><path d="M4 16a1 1 0 0 1 1-1h22a1 1 0 1 1 0 2H5a1 1 0 0 1-1-1z" fill="#000000" opacity="1" data-original="#000000"></path><path d="M17.293 6.293a1 1 0 0 1 1.414 0l9 9a1 1 0 0 1 0 1.414l-9 9a1 1 0 0 1-1.414-1.414L25.586 16l-8.293-8.293a1 1 0 0 1 0-1.414z" fill="#000000" opacity="1" data-original="#000000"></path></g></g></svg>