<svg width="32" height="32" viewBox="0 0 32 32" fill="none" xmlns="http://www.w3.org/2000/svg">
<path d="M16.0039 4.16686C9.11879 -1.84449 0.365392 3.43726 0.222096 10.5971C0.185757 12.4218 0.713004 14.1992 1.76338 15.8378H8.57098L9.78179 13.8228C10.1335 13.2376 10.9844 13.2191 11.356 13.8023L13.9106 17.8096L17.635 9.96125C17.9599 9.27613 18.9274 9.25492 19.286 9.91881L22.4782 15.8371H30.2443C35.9974 6.86146 24.6277 -3.36324 16.0039 4.16618V4.16686Z" fill="#4E4EAF"/>
<path d="M21.1103 17.1991L18.5234 12.4033L14.8656 20.1121C14.5544 20.7677 13.639 20.8246 13.2489 20.2127L10.5983 16.0548L9.88798 17.2361C9.72068 17.514 9.41969 17.6844 9.09471 17.6844H3.22711C3.41086 17.8767 2.43041 16.9 15.3511 29.731C15.7117 30.0897 16.2952 30.0897 16.6565 29.731C29.3783 17.0971 28.5967 17.876 28.7804 17.6844H21.9255C21.5848 17.6844 21.2721 17.4975 21.111 17.1984L21.1103 17.1991Z" fill="#685DC5"/>
</svg>
