<svg id="Glyph" height="512" viewBox="0 0 64 64" width="512" xmlns="http://www.w3.org/2000/svg"><g fill="rgb(0,0,0)"><path d="m52.71 47.24c-2.29-2.43-5.02-6.09-4.98-9.72v-8.71c-.862-20.84856-30.596-20.85394-31.46.00012v8.71985c.04 3.62-2.69 7.28-4.98 9.71a2.82346 2.82346 0 0 0 2.06 4.76003h37.3a2.83848 2.83848 0 0 0 2.06-4.76z"/><path d="m32 11.09a17.17361 17.17361 0 0 1 4.74.65v-2.28c-.19008-6.24435-9.27719-6.25739-9.48.00011v2.27989a17.17236 17.17236 0 0 1 4.74-.65z"/><path d="m24.45 54a8.30637 8.30637 0 0 0 15.43-.00017z"/></g></svg>