<svg xmlns="http://www.w3.org/2000/svg" version="1.1" xmlns:xlink="http://www.w3.org/1999/xlink" width="512" height="512" x="0" y="0" viewBox="0 0 4000 4000" style="enable-background:new 0 0 512 512" xml:space="preserve"><g><path fill="#685dc5" d="M1888 2448v336c0 184.789-151.211 336-336 336h-336c-184.789 0-336-151.211-336-336v-336c0-184.789 151.211-336 336-336h336c184.789 0 336 151.211 336 336zM1888 1216v336c0 184.789-151.211 336-336 336h-336c-184.789 0-336-151.211-336-336v-336c0-184.789 151.211-336 336-336h336c184.789 0 336 151.211 336 336zM3120 2448v336c0 184.789-151.211 336-336 336h-336c-184.789 0-336-151.211-336-336v-336c0-184.789 151.211-336 336-336h336c184.789 0 336 151.211 336 336zM3120 1216v336c0 184.789-151.211 336-336 336h-336c-184.789 0-336-151.211-336-336v-336c0-184.789 151.211-336 336-336h336c184.789 0 336 151.211 336 336z" opacity="1" data-original="#1e2959"></path></g></svg>