<svg xmlns="http://www.w3.org/2000/svg" version="1.1" xmlns:xlink="http://www.w3.org/1999/xlink" width="512" height="512" x="0" y="0" viewBox="0 0 32 32" style="enable-background:new 0 0 512 512" xml:space="preserve" class=""><g><path d="M24.49 4.25a3 3 0 0 0-2.56-1.48H10.07a3 3 0 0 0-2.56 1.48L1.58 14.52a3 3 0 0 0 0 3l5.93 10.23a3 3 0 0 0 2.56 1.48h11.86a3 3 0 0 0 2.56-1.48l5.93-10.27a3 3 0 0 0 0-3zM21 16a5 5 0 1 1-5-5 5 5 0 0 1 5 5z" data-name="Layer 2" fill="#4f4f4f" opacity="1" data-original="#000000"></path></g></svg>