<svg xmlns="http://www.w3.org/2000/svg" version="1.1" xmlns:xlink="http://www.w3.org/1999/xlink" width="512" height="512" x="0" y="0" viewBox="0 0 512 512" style="enable-background:new 0 0 512 512" xml:space="preserve" class=""><g><path fill-rule="evenodd" d="M256 16a115.629 115.629 0 0 1 115.629 115.629c0 .267-.008.533-.01.8L256.8 247.248c-.267 0-.532.01-.8.01A115.629 115.629 0 1 1 256 16zm-54.337 306.183 17.906-17.9 44.568 44.568-17.906 17.9a5.01 5.01 0 0 1-7.071 0l-37.5-37.5a5.01 5.01 0 0 1 0-7.071zm27.8-27.8 44.568 44.568 170.996-170.996a31.514 31.514 0 0 0-44.568-44.567L229.467 294.379zm187.193-152.522-70.268 70.268a7 7 0 0 0 9.9 9.9l70.268-70.268a7 7 0 1 0-9.9-9.9zM223.593 370.982l-26.161-26.161-139.65 139.65c15.608 15.608 63.618 17.054 86.865-6.193L193.13 429.8c1.04-1.04 1.118-24.182 1.972-30.322l28.491-28.491zm6.786-305.559v40.585H189.8v51.242h40.584v40.585h51.242V157.25h40.585v-51.242h-40.59V65.423z" fill="#685dc5" opacity="1" data-original="#000000"></path></g></svg>