<svg xmlns="http://www.w3.org/2000/svg" version="1.1" xmlns:xlink="http://www.w3.org/1999/xlink" width="512" height="512" x="0" y="0" viewBox="0 0 512 512" style="enable-background:new 0 0 512 512" xml:space="preserve" class=""><g><path fill-rule="evenodd" d="M378.223 408.661a134.3 134.3 0 0 0 27.364-2.826V487.4a24.676 24.676 0 0 1-24.6 24.6H38.89a24.676 24.676 0 0 1-24.6-24.6V62.131a24.676 24.676 0 0 1 24.6-24.6h79.384v31.39H58.882a13.246 13.246 0 0 0-13.2 13.2v385.26a13.246 13.246 0 0 0 13.2 13.2H361a13.246 13.246 0 0 0 13.2-13.2v-58.807q2.013.087 4.023.087zM374.2 82.123v58.809c1.341-.029 2.681-.058 4.022-.058a134.3 134.3 0 0 1 27.364 2.8V62.131a24.676 24.676 0 0 0-24.6-24.6h-79.378v31.39H361a13.246 13.246 0 0 1 13.2 13.202zm-86.99-2.565H132.67v-48.7a6.106 6.106 0 0 1 6.091-6.09h46.773v-.35a24.407 24.407 0 1 1 48.813 0v.35h46.774a6.106 6.106 0 0 1 6.09 6.09zm-70-55.137a7.2 7.2 0 0 0-7.2-7.2h-.11a7.2 7.2 0 1 0 0 14.4h.116a7.214 7.214 0 0 0 7.196-7.2zM123.9 295.91H81.584v42.315H123.9zM81.584 422.854H123.9V380.54H81.584zM123.9 211.281H81.584V253.6H123.9zm30.629 91.827h92.818a136.036 136.036 0 0 1-2.3-14.4h-90.52a7.2 7.2 0 1 0 0 14.4zm0 27.919a7.2 7.2 0 1 0 0 14.4H264.48a134.012 134.012 0 0 1-7.781-14.4zm0 42.315a7.2 7.2 0 1 0 0 14.4h151.829a130.365 130.365 0 0 1-18.709-14.4zm0-112.548h90.515a138.575 138.575 0 0 1 2.3-14.4h-92.817a7.2 7.2 0 0 0 0 14.4zm-7.2 162.06a7.176 7.176 0 0 0 7.2 7.2h183.8a7.184 7.184 0 1 0 0-14.367h-183.8a7.17 7.17 0 0 0-7.2 7.167zm7.2-218.771a7.2 7.2 0 1 0 0 14.4H256.7a136.938 136.938 0 0 1 7.781-14.4zm191-77.431a7.214 7.214 0 0 0-7.2-7.2h-183.8a7.2 7.2 0 1 0 0 14.4h183.8a7.213 7.213 0 0 0 7.196-7.2zm-39.167 35.117H154.527a7.2 7.2 0 0 0 0 14.4h133.122a134.019 134.019 0 0 1 18.709-14.4zM123.9 126.652H81.584v42.315H123.9zm373.808 148.1A119.5 119.5 0 1 1 378.223 155.27a119.5 119.5 0 0 1 119.483 119.483zm-53.534-26.286h-39.665V208.8h-52.6v39.663h-39.635v52.6h39.633V340.7h52.6v-39.631h39.663z" fill="#685dc5" opacity="1" data-original="#000000" class=""></path></g></svg>