<svg xmlns="http://www.w3.org/2000/svg" version="1.1" xmlns:xlink="http://www.w3.org/1999/xlink" width="512" height="512" x="0" y="0" viewBox="0 0 32 32" style="enable-background:new 0 0 512 512" xml:space="preserve" fill-rule="evenodd" class=""><g><path d="M5.465 25.248A13.895 13.895 0 0 1 2 16.05C2 8.351 8.251 2.1 15.95 2.1S29.9 8.351 29.9 16.05c0 3.522-1.308 6.742-3.465 9.198a12.781 12.781 0 0 0-6.737-4.937 6.223 6.223 0 0 0 2.485-4.978c0-3.44-2.793-6.233-6.233-6.233s-6.233 2.793-6.233 6.233c0 2.033.976 3.84 2.485 4.978a12.781 12.781 0 0 0-6.737 4.937zm19.52 1.428C22.55 28.749 19.395 30 15.95 30s-6.6-1.251-9.035-3.324c1.915-2.963 5.248-4.926 9.035-4.926s7.12 1.963 9.035 4.926zM15.95 11.1c2.336 0 4.233 1.897 4.233 4.233s-1.897 4.232-4.233 4.232-4.233-1.896-4.233-4.232S13.614 11.1 15.95 11.1z" fill="#4f469c" opacity="1" data-original="#000000" class=""></path></g></svg>